<?xml version="1.0" encoding="utf-8"?>
<svg viewBox="6.615 -1.603 741.204 373.536" xmlns="http://www.w3.org/2000/svg">
  <g transform="matrix(4.305164, 0, 0, 4.305164, 158.065735, 129.521133)" style="">
    <rect fill="none" height="24" width="24"/>
  </g>
  <g transform="matrix(1, 0, 0, 1, 0, -2.356597)">
    <g transform="matrix(14.633684, 0, 0, 14.633684, 63.692566, -34.92189)" style="">
      <path d="M19,3H5C3.9,3,3,3.9,3,5v14c0,1.1,0.9,2,2,2h14c1.1,0,2-0.9,2-2V5C21,3.9,20.1,3,19,3z M13.03,7.06L14.09,6l1.41,1.41 L16.91,6l1.06,1.06l-1.41,1.41l1.41,1.41l-1.06,1.06L15.5,9.54l-1.41,1.41l-1.06-1.06l1.41-1.41L13.03,7.06z M6.25,7.72h5v1.5h-5 V7.72z M11.5,16h-2v2H8v-2H6v-1.5h2v-2h1.5v2h2V16z M18,17.25h-5v-1.5h5V17.25z M18,14.75h-5v-1.5h5V14.75z" style="fill: rgb(77, 171, 245);"/>
    </g>
    <ellipse style="stroke-width: 0px; stroke: rgb(0, 0, 0); fill: rgb(26, 26, 26);" cx="136.84" cy="249.74" rx="120.057" ry="116.324"/>
    <path d="M 163.459 195.966 L 132.332 304.894 C 131.143 309.027 126.841 311.413 122.705 310.243 C 118.573 309.05 116.19 304.752 117.356 300.616 L 148.478 191.692 C 149.671 187.559 153.973 185.165 158.106 186.347 C 162.238 187.524 164.624 191.834 163.459 195.966 Z M 188.695 215.565 L 215.93 242.796 C 218.964 245.834 218.964 250.748 215.93 253.782 L 188.695 281.017 C 185.657 284.055 180.746 284.055 177.704 281.017 C 174.666 277.979 174.666 273.069 177.704 270.027 L 199.42 248.291 L 177.704 226.555 C 174.666 223.513 174.666 218.603 177.704 215.565 C 180.746 212.527 185.657 212.527 188.695 215.565 Z M 103.106 226.555 L 81.386 248.291 L 103.106 270.027 C 106.144 273.069 106.144 277.979 103.106 281.017 C 100.068 284.055 95.162 284.055 92.12 281.017 L 64.877 253.782 C 61.843 250.748 61.843 245.834 64.877 242.796 L 92.12 215.565 C 95.162 212.527 100.068 212.527 103.106 215.565 C 106.144 218.603 106.144 223.513 103.106 226.555 Z" style="fill: rgb(77, 171, 245);"/>
  </g>
  <g transform="matrix(1, 0, 0, 1, 58.291599, 87.735649)"/>
  <path d="M 300.6291883964844 204.21539589453124 Q 298.8554813964844 202.03237189453125 298.8554813964844 200.29277464453125 Q 298.8554813964844 198.55317739453125 301.7889198964844 195.68795839453125 Q 303.49440739648435 194.05069039453124 305.4045533964844 194.05069039453124 Q 307.3146993964844 194.05069039453124 310.72567439648435 197.46166539453125 Q 311.6807473964844 198.62139689453124 313.4544543964844 199.67879914453124 Q 315.2281613964844 200.73620139453124 316.7289903964844 200.73620139453124 Q 323.07340389648436 200.73620139453124 323.07340389648436 195.55151939453125 Q 323.07340389648436 193.98247089453125 321.3338066464844 192.92506864453125 Q 319.59420939648436 191.86766639453126 317.0018683964844 191.39012989453124 Q 314.40952739648435 190.91259339453126 311.4078693964844 189.85519114453126 Q 308.40621139648437 188.79778889453124 305.8138703964844 187.36517939453125 Q 303.22152939648436 185.93256989453124 301.4819321464844 182.82858264453125 Q 299.74233489648435 179.72459539453126 299.74233489648435 175.35854739453126 Q 299.74233489648435 169.35523139453124 304.21071214648435 164.88685414453124 Q 308.67908939648436 160.41847689453124 316.3878928964844 160.41847689453124 Q 320.4810628964844 160.41847689453124 323.85792814648437 161.47587914453123 Q 327.2347933964844 162.53328139453126 328.53096389648437 163.62479339453125 L 330.23645139648437 164.92096389453124 Q 332.35125589648436 166.89932939453126 332.35125589648436 168.26371939453125 Q 332.35125589648436 169.62810939453124 330.71398789648435 172.01579189453125 Q 328.39452489648437 175.42676689453126 325.9386228964844 175.42676689453126 Q 324.5060133964844 175.42676689453126 322.3912088964844 174.06237689453124 Q 322.1865503964844 173.92593789453124 321.6066846464844 173.38018189453123 Q 321.0268188964844 172.83442589453125 320.5492823964844 172.49332839453126 Q 319.1166728964844 171.60647489453123 316.89953914648436 171.60647489453123 Q 314.6824053964844 171.60647489453123 313.21568614648436 172.66387714453126 Q 311.7489668964844 173.72127939453125 311.7489668964844 175.59731564453125 Q 311.7489668964844 177.47335189453125 313.48856414648435 178.63308339453124 Q 315.2281613964844 179.79281489453126 317.82050239648436 180.20213189453125 Q 320.4128433964844 180.61144889453124 323.48272089648435 181.46419264453124 Q 326.55259839648437 182.31693639453124 329.14493939648435 183.54488739453126 Q 331.7372803964844 184.77283839453125 333.47687764648435 187.80860614453124 Q 335.2164748964844 190.84437389453126 335.2164748964844 195.27864139453123 Q 335.2164748964844 199.71290889453124 333.4427678964844 203.08977414453125 Q 331.6690608964844 206.46663939453126 328.80384189648436 208.30856589453126 Q 323.27806239648436 211.92419939453126 317.0018683964844 211.92419939453126 Q 313.79555189648437 211.92419939453126 310.9303328964844 211.13967514453125 Q 308.0651138964844 210.35515089453125 306.2914068964844 209.19541939453126 Q 302.6757733964844 207.01239539453124 301.24316389648436 204.96581039453125 Z M 339.64769479492185 167.24042689453125 Q 339.64769479492185 165.67137839453125 339.7500240449219 164.88685414453124 Q 339.8523532949219 164.10232989453124 340.3981092949219 163.07903739453124 Q 341.35318229492185 161.23711089453124 345.7192302949219 161.23711089453124 Q 350.49459529492185 161.23711089453124 351.3814487949219 163.76123239453125 Q 351.72254629492187 164.92096389453124 351.72254629492187 167.30864639453125 L 351.72254629492187 205.23868839453124 Q 351.72254629492187 206.87595639453124 351.6202170449219 207.62637089453125 Q 351.5178877949219 208.37678539453125 350.9721317949219 209.40007789453125 Q 350.01705879492187 211.24200439453125 345.6510107949219 211.24200439453125 Q 340.87564579492187 211.24200439453125 340.0570117949219 208.64966339453125 Q 339.64769479492185 207.55815139453125 339.64769479492185 205.17046889453124 Z M 410.3138786542969 163.14725689453124 Q 410.8596346542969 164.17054939453124 410.9619639042969 164.98918339453124 Q 411.0642931542969 165.80781739453124 411.0642931542969 167.37686589453125 L 411.0642931542969 205.23868839453124 Q 411.0642931542969 209.94583389453126 408.4719521542969 210.76446789453124 Q 407.1757816542969 211.17378489453125 405.1974161542969 211.17378489453125 Q 403.2190506542969 211.17378489453125 402.0593191542969 210.83268739453126 Q 400.89958765429685 210.49158989453124 400.28561215429687 210.01405339453126 Q 399.6716366542969 209.53651689453125 399.3305391542969 208.64966339453125 Q 398.98944165429685 207.48993189453125 398.98944165429685 205.10224939453124 L 398.98944165429685 182.24871689453124 Q 397.2839541542969 184.36352139453126 394.0094181542969 188.96833764453126 Q 390.7348821542969 193.57315389453126 389.84802865429685 194.73288539453125 Q 388.9611751542969 195.89261689453124 388.6200776542969 196.33604364453126 Q 388.27898015429685 196.77947039453124 386.94869990429686 197.56399464453125 Q 385.6184196542969 198.34851889453125 384.0834809042969 198.34851889453125 Q 382.54854215429685 198.34851889453125 381.28648140429686 197.63221414453125 Q 380.0244206542969 196.91590939453124 379.4786646542969 196.23371439453126 L 378.93290865429685 195.48329989453126 Q 377.5685186542969 193.77781239453125 373.54356815429685 188.21792314453126 Q 369.51861765429686 182.65803389453126 369.1775201542969 182.24871689453124 L 369.1775201542969 205.23868839453124 Q 369.1775201542969 206.80773689453125 369.07519090429685 207.59226114453125 Q 368.9728616542969 208.37678539453125 368.4271056542969 209.33185839453125 Q 367.40381315429687 211.17378489453125 363.1059846542969 211.17378489453125 Q 358.94459515429685 211.17378489453125 357.9213026542969 209.33185839453125 Q 357.3755466542969 208.37678539453125 357.2732174042969 207.55815139453125 Q 357.17088815429685 206.73951739453125 357.17088815429685 205.10224939453124 L 357.17088815429685 167.24042689453125 Q 357.17088815429685 165.67137839453125 357.2732174042969 164.88685414453124 Q 357.3755466542969 164.10232989453124 357.9213026542969 163.07903739453124 Q 358.94459515429685 161.30533039453124 363.2424236542969 161.30533039453124 Q 365.0843501542969 161.30533039453124 366.4146304042969 161.74875714453125 Q 367.74491065429686 162.19218389453124 368.15422765429685 162.66972039453125 L 368.5635446542969 163.07903739453124 L 384.04937115429686 183.40844839453126 Q 395.64668615429684 168.05906089453126 399.5351976542969 163.14725689453124 Q 400.69492915429686 161.30533039453124 405.02686740429687 161.30533039453124 Q 409.3588056542969 161.30533039453124 410.3138786542969 163.14725689453124 Z M 453.4292001542969 171.33359689453124 Q 453.4292001542969 171.33359689453124 454.31605365429687 173.14141364453124 Q 455.2029071542969 174.94923039453124 455.2029071542969 179.38349789453125 Q 455.2029071542969 183.81776539453125 453.4292001542969 187.39928914453125 Q 451.6554931542969 190.98081289453125 448.85849365429686 193.09561739453125 Q 443.19627515429687 197.46166539453125 437.1247396542969 197.46166539453125 L 428.59730215429687 197.46166539453125 L 428.59730215429687 205.17046889453124 Q 428.59730215429687 206.73951739453125 428.4949729042969 207.52404164453125 Q 428.3926436542969 208.30856589453126 427.8468876542969 209.33185839453125 Q 426.89181465429687 211.17378489453125 422.5257666542969 211.17378489453125 Q 417.75040165429687 211.17378489453125 416.9317676542969 208.64966339453125 Q 416.52245065429685 207.48993189453125 416.52245065429685 205.10224939453124 L 416.52245065429685 167.24042689453125 Q 416.52245065429685 165.67137839453125 416.6247799042969 164.88685414453124 Q 416.7271091542969 164.10232989453124 417.2728651542969 163.07903739453124 Q 418.22793815429685 161.23711089453124 422.5939861542969 161.23711089453124 L 437.1929591542969 161.23711089453124 Q 443.19627515429687 161.23711089453124 448.85849365429686 165.60315889453125 Q 451.6554931542969 167.71796339453124 453.4292001542969 171.33359689453124 Z M 437.1929591542969 185.38681389453126 Q 439.2395441542969 185.38681389453126 441.2179096542969 183.88598489453125 Q 443.19627515429687 182.38515589453124 443.19627515429687 179.38349789453125 Q 443.19627515429687 176.38183989453125 441.2179096542969 174.84690114453124 Q 439.2395441542969 173.31196239453124 437.1247396542969 173.31196239453124 L 428.59730215429687 173.31196239453124 L 428.59730215429687 185.38681389453126 L 437.1929591542969 185.38681389453126 Z M 471.71287222265624 201.14551839453125 L 490.26857622265624 201.14551839453125 Q 492.5198197226563 201.14551839453125 493.54311222265625 201.65716464453124 Q 494.5664047226563 202.16881089453125 494.90750222265626 203.26032289453124 Q 495.24859972265625 204.35183489453124 495.24859972265625 206.15965164453124 Q 495.24859972265625 207.96746839453124 494.90750222265626 209.05898039453126 Q 494.5664047226563 210.15049239453126 493.74777072265624 210.55980939453124 Q 492.4516002226562 211.24200439453125 490.20035672265624 211.24200439453125 L 465.64133672265626 211.24200439453125 Q 460.86597172265624 211.24200439453125 460.04733772265627 208.64966339453125 Q 459.6380207226562 207.55815139453125 459.6380207226562 205.17046889453124 L 459.6380207226562 167.24042689453125 Q 459.6380207226562 165.67137839453125 459.74034997265625 164.88685414453124 Q 459.8426792226563 164.10232989453124 460.38843522265626 163.07903739453124 Q 461.3435082226562 161.23711089453124 465.70955622265626 161.23711089453124 Q 470.4849212226562 161.23711089453124 471.37177472265626 163.76123239453125 Q 471.71287222265624 164.92096389453124 471.71287222265624 167.30864639453125 Z M 511.7480895078125 199.16715289453126 L 532.7596955078125 199.16715289453126 Q 534.3287440078125 199.16715289453126 535.1132682578125 199.26948214453125 Q 535.8977925078125 199.37181139453125 536.9210850078125 199.91756739453126 Q 538.7630115078125 200.87264039453126 538.7630115078125 205.23868839453124 Q 538.7630115078125 210.01405339453126 536.2388900078125 210.83268739453126 Q 535.0791585078125 211.24200439453125 532.6914760078125 211.24200439453125 L 505.6765540078125 211.24200439453125 Q 500.9011890078125 211.24200439453125 500.0825550078125 208.64966339453125 Q 499.6732380078125 207.55815139453125 499.6732380078125 205.17046889453124 L 499.6732380078125 167.24042689453125 Q 499.6732380078125 163.76123239453125 500.9694085078125 162.49917164453126 Q 502.2655790078125 161.23711089453124 505.8812125078125 161.23711089453124 L 532.7596955078125 161.23711089453124 Q 534.3287440078125 161.23711089453124 535.1132682578125 161.33944014453124 Q 535.8977925078125 161.44176939453126 536.9210850078125 161.98752539453125 Q 538.7630115078125 162.94259839453125 538.7630115078125 167.30864639453125 Q 538.7630115078125 172.08401139453125 536.2388900078125 172.90264539453125 Q 535.0791585078125 173.31196239453124 532.6914760078125 173.31196239453124 L 511.7480895078125 173.31196239453124 L 511.7480895078125 180.20213189453125 L 525.2555505078125 180.20213189453125 Q 526.8245990078125 180.20213189453125 527.6091232578125 180.30446114453125 Q 528.3936475078125 180.40679039453124 529.4169400078125 180.95254639453125 Q 531.2588665078125 181.90761939453125 531.2588665078125 186.27366739453126 Q 531.2588665078125 191.04903239453125 528.6665255078125 191.86766639453126 Q 527.5067940078125 192.27698339453124 525.1191115078125 192.27698339453124 L 511.7480895078125 192.27698339453124 Z" transform="matrix(1.465857, 0, 0, 1.465857, -52.802212, -142.297409)" style="fill: rgb(33, 150, 243); stroke-width: 0px; text-transform: uppercase; white-space: pre;"/>
  <path d="M 353.0217643964844 231.36676983398436 Q 353.5675203964844 232.39006233398436 353.6698496464844 233.20869633398436 Q 353.7721788964844 234.02733033398437 353.7721788964844 235.59637883398437 L 353.7721788964844 273.4582013339844 Q 353.7721788964844 278.16534683398436 351.1798378964844 278.9839808339844 Q 349.8836673964844 279.3932978339844 347.9053018964844 279.3932978339844 Q 345.9269363964844 279.3932978339844 344.7672048964844 279.0522003339844 Q 343.60747339648435 278.7111028339844 342.99349789648437 278.23356633398436 Q 342.3795223964844 277.75602983398437 342.0384248964844 276.8691763339844 Q 341.69732739648435 275.7094448339844 341.69732739648435 273.3217623339844 L 341.69732739648435 250.46822983398437 Q 339.9918398964844 252.5830343339844 336.7173038964844 257.18785058398436 Q 333.4427678964844 261.79266683398436 332.55591439648435 262.9523983339844 Q 331.6690608964844 264.1121298339844 331.3279633964844 264.55555658398436 Q 330.98686589648435 264.99898333398437 329.65658564648436 265.7835075839844 Q 328.3263053964844 266.5680318339844 326.7913666464844 266.5680318339844 Q 325.25642789648435 266.5680318339844 323.99436714648436 265.8517270839844 Q 322.7323063964844 265.13542233398437 322.1865503964844 264.4532273339844 L 321.64079439648435 263.70281283398435 Q 320.2764043964844 261.99732533398435 316.25145389648435 256.4374360839844 Q 312.22650339648436 250.87754683398438 311.8854058964844 250.46822983398437 L 311.8854058964844 273.4582013339844 Q 311.8854058964844 275.0272498339844 311.78307664648435 275.81177408398435 Q 311.6807473964844 276.59629833398435 311.1349913964844 277.5513713339844 Q 310.11169889648437 279.3932978339844 305.8138703964844 279.3932978339844 Q 301.65248089648435 279.3932978339844 300.6291883964844 277.5513713339844 Q 300.0834323964844 276.59629833398435 299.9811031464844 275.7776643339844 Q 299.87877389648435 274.9590303339844 299.87877389648435 273.3217623339844 L 299.87877389648435 235.45993983398438 Q 299.87877389648435 233.89089133398437 299.9811031464844 233.10636708398437 Q 300.0834323964844 232.32184283398436 300.6291883964844 231.29855033398437 Q 301.65248089648435 229.52484333398436 305.9503093964844 229.52484333398436 Q 307.7922358964844 229.52484333398436 309.1225161464844 229.96827008398438 Q 310.45279639648436 230.41169683398437 310.86211339648435 230.88923333398438 L 311.2714303964844 231.29855033398437 L 326.75725689648436 251.6279613339844 Q 338.35457189648434 236.27857383398438 342.2430833964844 231.36676983398436 Q 343.40281489648436 229.52484333398436 347.73475314648437 229.52484333398436 Q 352.0666913964844 229.52484333398436 353.0217643964844 231.36676983398436 Z M 388.0783347988281 233.00403783398437 L 406.4975997988281 271.07051883398435 Q 407.6573312988281 273.3899818339844 407.6573312988281 274.54971333398436 Q 407.6573312988281 277.0056153339844 403.70060029882814 278.9839808339844 Q 401.38113729882815 280.14371233398435 400.0508570488281 280.14371233398435 Q 398.7205767988281 280.14371233398435 397.8678330488281 279.5297368339844 Q 397.0150892988281 278.9157613339844 396.6398820488281 278.23356633398436 Q 396.26467479882814 277.5513713339844 395.5824797988281 276.18698133398436 L 392.0350657988281 268.81927533398436 L 373.1382642988281 268.81927533398436 L 369.5908502988281 276.18698133398436 Q 368.90865529882814 277.5513713339844 368.5334480488281 278.16534683398436 Q 368.1582407988281 278.7793223339844 367.3054970488281 279.42740758398435 Q 366.4527532988281 280.07549283398436 365.1224730488281 280.07549283398436 Q 363.7921927988281 280.07549283398436 361.47272979882814 278.9157613339844 Q 357.51599879882815 277.0056153339844 357.51599879882815 274.54971333398436 Q 357.51599879882815 273.3899818339844 358.6757302988281 271.07051883398435 L 377.0949952988281 232.93581833398437 Q 377.84540979882814 231.36676983398436 379.3803485488281 230.41169683398437 Q 380.9152872988281 229.45662383398437 382.6207747988281 229.45662383398437 Q 386.3046277988281 229.45662383398437 388.0783347988281 233.00403783398437 Z M 382.5525552988281 249.37671783398437 L 378.05006829882814 258.7227893339844 L 387.12326179882814 258.7227893339844 Z M 401.92760188867186 229.38840433398437 L 439.8576438886719 229.38840433398437 Q 442.04066788867186 229.38840433398437 443.0639603886719 229.90005058398438 Q 444.08725288867186 230.41169683398437 444.4283503886719 231.5032088339844 Q 444.7694478886719 232.59472083398438 444.7694478886719 234.36842783398436 Q 444.7694478886719 236.14213483398436 444.4283503886719 237.19953708398438 Q 444.08725288867186 238.25693933398438 443.2686188886719 238.66625633398436 Q 442.04066788867186 239.28023183398437 439.7894243886719 239.28023183398437 L 426.7594998886719 239.28023183398437 L 426.7594998886719 273.5946403339844 Q 426.7594998886719 275.1636888339844 426.65717063867186 275.9141033339844 Q 426.5548413886719 276.66451783398435 426.0431951386719 277.6537005839844 Q 425.53154888867186 278.6428833339844 424.23537838867185 279.0522003339844 Q 422.9392078886719 279.4615173339844 420.8244033886719 279.4615173339844 Q 418.70959888867185 279.4615173339844 417.44753813867186 279.0522003339844 Q 416.18547738867187 278.6428833339844 415.67383113867186 277.6537005839844 Q 415.1621848886719 276.66451783398435 415.0598556386719 275.8799935839844 Q 414.95752638867185 275.0954693339844 414.95752638867185 273.5264208339844 L 414.95752638867185 239.28023183398437 L 401.85938238867186 239.28023183398437 Q 399.6763583886719 239.28023183398437 398.65306588867185 238.76858558398436 Q 397.6297733886719 238.25693933398438 397.2886758886719 237.16542733398438 Q 396.9475783886719 236.07391533398436 396.9475783886719 234.30020833398436 Q 396.9475783886719 232.52650133398436 397.2886758886719 231.46909908398436 Q 397.6297733886719 230.41169683398437 398.44840738867185 230.00237983398438 Q 399.6763583886719 229.38840433398437 401.92760188867186 229.38840433398437 Z M 479.418590453125 231.29855033398437 Q 479.418590453125 231.29855033398437 479.691468453125 230.78690408398438 Q 479.964346453125 230.27525783398437 481.260516953125 229.86594083398438 Q 482.556687453125 229.45662383398437 484.535052953125 229.45662383398437 Q 486.513418453125 229.45662383398437 487.673149953125 229.79772133398438 Q 488.832881453125 230.13881883398437 489.446856953125 230.61635533398436 Q 490.060832453125 231.09389183398437 490.401929953125 231.98074533398437 Q 490.743027453125 233.14047683398437 490.743027453125 235.52815933398438 L 490.743027453125 273.3899818339844 Q 490.743027453125 274.9590303339844 490.640698203125 275.74355458398435 Q 490.538368953125 276.52807883398435 489.992612953125 277.5513713339844 Q 489.037539953125 279.3932978339844 484.671491953125 279.3932978339844 Q 479.896126953125 279.3932978339844 479.077492953125 276.8691763339844 Q 478.668175953125 275.7094448339844 478.668175953125 273.3217623339844 L 478.668175953125 259.47320383398437 L 460.590008453125 259.47320383398437 L 460.590008453125 273.3899818339844 Q 460.590008453125 274.9590303339844 460.487679203125 275.74355458398435 Q 460.385349953125 276.52807883398435 459.839593953125 277.5513713339844 Q 458.884520953125 279.3932978339844 454.518472953125 279.3932978339844 Q 449.743107953125 279.3932978339844 448.924473953125 276.8691763339844 Q 448.515156953125 275.7094448339844 448.515156953125 273.3217623339844 L 448.515156953125 235.45993983398438 Q 448.515156953125 233.89089133398437 448.617486203125 233.10636708398437 Q 448.719815453125 232.32184283398436 449.265571453125 231.29855033398437 Q 450.220644453125 229.45662383398437 454.586692453125 229.45662383398437 Q 459.362057453125 229.45662383398437 460.248910953125 231.98074533398437 Q 460.590008453125 233.14047683398437 460.590008453125 235.52815933398438 L 460.590008453125 249.44493733398437 L 478.668175953125 249.44493733398437 L 478.668175953125 235.45993983398438 Q 478.668175953125 233.89089133398437 478.770505203125 233.10636708398437 Q 478.872834453125 232.32184283398436 479.418590453125 231.29855033398437 Z" transform="matrix(1.465857, 0, 0, 1.465857, -52.802212, -142.297409)" style="fill: rgb(33, 150, 243); stroke-width: 0px; text-transform: uppercase; white-space: pre;"/>
</svg>